<?xml version="1.0" encoding="UTF-8"?>
<svg id="Camada_2" data-name="Camada 2" xmlns="http://www.w3.org/2000/svg" viewBox="0 0 236.82 218.82">
  <defs>
    <style>
      .cls-1 {
        fill: #f39200;
      }
    </style>
  </defs>
  <g id="Camada_1-2" data-name="Camada 1">
    <g>
      <path class="cls-1" d="m40.86,20.39c37.44,7.16,74.89,14.31,112.33,21.47l28.33,5.41c4.29.82,8.62,1.51,12.87,2.5,2.37.55,4.82.91,6.36,2.88,1.71,2.18,2.05,5.92,2.55,8.52.84,4.39,1.55,8.8,2.32,13.2,1.72,9.8,3.44,19.61,5.16,29.41,1.6-3.94,3.2-7.87,4.8-11.81-22.06,10.33-46.32,14.76-70.6,13.64-13.45-.62-13.42,20.29,0,20.91,28.08,1.29,55.75-4.59,81.15-16.49,4.44-2.08,5.56-7.51,4.8-11.81-1.84-10.46-3.67-20.91-5.51-31.37-1.46-8.3-2.21-17.37-6.63-24.75-4.83-8.06-13.17-11.38-21.96-13.12-10.08-1.99-20.19-3.86-30.28-5.79C126.52,15.54,86.47,7.88,46.42.23c-5.54-1.06-11.28,1.55-12.86,7.3-1.4,5.11,1.73,11.79,7.3,12.86h0Z"/>
      <path class="cls-1" d="m89.95,67.25c13.45,0,13.48-20.91,0-20.91s-13.48,20.91,0,20.91h0Z"/>
      <path class="cls-1" d="m210.75,84.99c-7.64-8.51-19.48-20.85-14.62-33.41l-2.69,4.61.83-.9-4.61,2.69,1.13-.24h-5.56l1.13.4-4.61-2.69c4.8,3.8,7.33,12.59,9.85,17.99,3.34,7.15,6.68,14.29,10.01,21.44,2.39,5.12,9.75,6.41,14.3,3.75,5.24-3.07,6.15-9.17,3.75-14.3-4.63-9.91-9.13-19.89-13.91-29.73-2.28-4.69-4.83-9.94-8.7-13.52-5.09-4.7-12.96-5.21-17.97-.12-7.63,7.76-5.35,22.86-1.73,31.94,4.11,10.33,11.28,18.69,18.63,26.88,9.01,10.03,23.76-4.79,14.78-14.78h0Z"/>
      <path class="cls-1" d="m5.77,28.01c-.15,16.72,3.83,32.87,11.37,47.76,2.55,5.04,9.64,6.48,14.3,3.75,5.12-3,6.31-9.25,3.75-14.3-5.87-11.6-8.63-24.23-8.52-37.2s-20.79-13.47-20.91,0h0Z"/>
      <path class="cls-1" d="m198.88,49.63c17.2,9.23,16.95,31.82,17.03,48.74.07,13.45,20.98,13.48,20.91,0-.12-24.71-3-53.71-27.39-66.79-11.86-6.36-22.43,11.68-10.55,18.05h0Z"/>
      <path class="cls-1" d="m3.75,24.53C.19,34.67-.31,45.57.14,56.22s.86,21.22,6.41,30.06,16.29,15.47,26.86,12.87c6.75-1.66,10.53-8.56,8.83-15.2-1.4-5.44-4.47-10.86-6.66-16.03-4.77,4.77-9.54,9.54-14.3,14.3-.72-.61-1.19-1.38-1.43-2.3.07,13.45,20.98,13.48,20.91,0-.04-6.74-3.25-12.19-8.92-15.75-3.91-2.45-9.46-1.57-12.67,1.63-3.57,3.57-3.47,8.33-1.63,12.67.87,2.07,1.75,4.14,2.62,6.2.37.89.75,1.77,1.12,2.66.8,2.2.96,2.38.48.51l1.43-5.28-.53.87,6.25-4.8c-1.44.48-4.07-2.35-5.04-4.23-2.02-3.88-2.25-8.65-2.52-12.93-.66-10.65-.99-21.2,2.59-31.39,1.87-5.33-2.12-11.44-7.3-12.86-5.77-1.58-10.98,1.95-12.86,7.3h0Z"/>
      <path class="cls-1" d="m161.67,128.99c4.38,26.3,7.39,52.77,9.12,79.37.37,5.63,4.54,10.45,10.45,10.45,5.37,0,10.82-4.79,10.45-10.45-1.86-28.46-5.19-56.8-9.87-84.93-.93-5.57-7.82-8.69-12.86-7.3-5.91,1.62-8.23,7.27-7.3,12.86h0Z"/>
      <path class="cls-1" d="m167.47,154.97c-34.2,2.52-68.61.88-102.35-5.34-5.55-1.02-11.27,1.53-12.86,7.3-1.4,5.08,1.72,11.83,7.3,12.86,35.59,6.56,71.8,8.75,107.91,6.09,5.63-.42,10.45-4.51,10.45-10.45,0-5.34-4.79-10.87-10.45-10.45h0Z"/>
      <path class="cls-1" d="m142.87,33.81c13.45,0,13.48-20.91,0-20.91s-13.48,20.91,0,20.91h0Z"/>
      <path class="cls-1" d="m144.32,105.13c-4.27-.01-8.53-.3-12.77-.86l2.9.39c-4.86-.67-9.66-1.69-14.37-3.08-2.69-.79-6.01-.31-8.41,1.1-2.26,1.33-4.42,3.92-5.02,6.53-1.33,5.85,1.76,11.71,7.63,13.43,9.7,2.85,19.93,4.3,30.04,4.33,2.8,0,5.75-1.22,7.72-3.2s3.32-5,3.2-7.72c-.27-5.93-4.8-10.9-10.92-10.92h0Z"/>
      <path class="cls-1" d="m127.42,186c12.34,0,12.36-19.18,0-19.18s-12.36,19.18,0,19.18h0Z"/>
      <path class="cls-1" d="m14.41,69.9c3.61,7.36,5.82,15.09,9.18,22.51,3.07,6.78,15.03,6.91,18.05,0,4.29-9.8-1.02-21.3-9.7-26.94-11.32-7.35-21.81,10.74-10.55,18.05-.6-.39.48.93.54,1.04.27.5.58,3.27.65,1.63l1.43-5.28-.41.94h18.05c-1.24-2.74-2.11-6.78-3.4-9.91-1.77-4.28-3.74-8.45-5.78-12.6-2.48-5.07-9.69-6.45-14.3-3.75-5.17,3.03-6.24,9.22-3.75,14.3h0Z"/>
      <path class="cls-1" d="m41.31,77.09c-1.5-4.42-3.24-8.45-6.33-12-2.55-2.93-5.94-5.13-9.19-7.21-4.62-2.95-11.74-1.11-14.3,3.75-2.74,5.18-1.18,11.16,3.75,14.3,1.04.67,2.05,1.4,3.1,2.05,1.21.76-1.16-1.13-.17-.12.47.48,1,.93,1.48,1.4,1.16,1.14.1-.2-.11-.21.19,0,.73,1.25.83,1.43.97,1.68-.24-.97.08.18.19.66.46,1.32.68,1.97,1.75,5.17,7.27,9.11,12.86,7.3,5.14-1.66,9.18-7.31,7.3-12.86h0Z"/>
      <path class="cls-1" d="m15.25,71.94c1.83,2.93,3.81,5.81,5.44,8.85.45.85.82,1.66,1.14,2.5,1.1,2.79-.02,2.38,1.38.36l6.25-4.8c1.54-.05,2.95.48,4.24,1.61-3.8-4.18-10.92-3.86-14.78,0-4.16,4.16-3.81,10.6,0,14.78,3.58,3.93,8.82,4.97,13.91,4.21,6.43-.97,10.25-6.15,10.67-12.46.62-9.38-5.45-18.02-10.19-25.6-7.12-11.39-25.21-.9-18.05,10.55h0Z"/>
      <path class="cls-1" d="m145.99,126.99c6.9.21,13.78.06,20.67-.47,5.63-.43,10.45-4.5,10.45-10.45,0-5.32-4.79-10.89-10.45-10.45-6.88.53-13.77.69-20.67.47-5.65-.18-10.45,4.93-10.45,10.45,0,5.81,4.79,10.28,10.45,10.45h0Z"/>
      <path class="cls-1" d="m146,115.71c3.86.13,7.73.26,11.59.11,4.25-.17,8.45-.8,12.63-1.52,7.11-1.23,14.24-2.51,21.18-4.51,4.24-1.22,8.37-2.76,12.39-4.59,1.13-.51,2.1-2,2.42-3.14.35-1.26.19-2.93-.53-4.05s-1.8-2.11-3.14-2.42l-1.4-.19c-.95,0-1.83.24-2.65.72-.62.28-1.25.56-1.88.82l1.26-.53c-8.7,3.65-17.99,5.55-27.24,7.19-2.76.49-5.52.99-8.3,1.37l1.4-.19c-5.88.78-11.81.61-17.72.41-2.75-.09-5.38,2.49-5.26,5.26.13,2.93,2.31,5.16,5.26,5.26h0Z"/>
      <path class="cls-1" d="m224.76,98.71c-1.18.55-2.37,1.08-3.57,1.59l1.3-.55c-1.12.47-2.25.92-3.38,1.35-.71.17-1.33.49-1.86.98-.59.38-1.06.9-1.41,1.53-.4.63-.61,1.3-.65,2.03-.16.73-.13,1.45.1,2.18.43,1.32,1.25,2.6,2.51,3.26s2.85,1.06,4.21.55c2.79-1.06,5.55-2.22,8.26-3.49.64-.34,1.15-.81,1.53-1.41.48-.53.81-1.15.98-1.86.23-.73.26-1.45.1-2.18-.03-.73-.25-1.4-.65-2.03-.75-1.17-1.87-2.19-3.26-2.51l-1.45-.2c-.99,0-1.9.25-2.76.75h0Z"/>
      <path class="cls-1" d="m223.34,105.08c1.4,0,2.87-.61,3.86-1.6s1.66-2.5,1.6-3.86c-.13-2.96-2.4-5.46-5.46-5.46-1.4,0-2.87.61-3.86,1.6s-1.66,2.5-1.6,3.86c.13,2.96,2.4,5.46,5.46,5.46h0Z"/>
      <path class="cls-1" d="m221.89,103.94c1.43,0,2.93-.62,3.93-1.63s1.69-2.55,1.63-3.93c-.14-3.02-2.45-5.56-5.56-5.56-1.43,0-2.93.62-3.93,1.63s-1.69,2.55-1.63,3.93c.14,3.02,2.45,5.56,5.56,5.56h0Z"/>
      <path class="cls-1" d="m210.59,32.15c-5.93-3.09-12.41-4.82-19.1-5.06-2.86-.1-5.59,2.58-5.46,5.46.14,3.04,2.4,5.35,5.46,5.46,1.27.04,2.54.15,3.8.32l-1.45-.2c3.34.46,6.6,1.35,9.71,2.65l-1.3-.55c.96.41,1.91.86,2.84,1.34,1.29.68,2.77.95,4.21.55,1.27-.35,2.64-1.33,3.26-2.51.67-1.27,1-2.8.55-4.21-.43-1.32-1.25-2.6-2.51-3.26h0Z"/>
      <path class="cls-1" d="m228.69,102.16c1.43,0,2.93-.62,3.93-1.63s1.69-2.55,1.63-3.93c-.14-3.02-2.45-5.56-5.56-5.56-1.43,0-2.93.62-3.93,1.63s-1.69,2.55-1.63,3.93c.14,3.02,2.45,5.56,5.56,5.56h0Z"/>
      <path class="cls-1" d="m223.88,108.3c.91.31,1.69.27,2.59.15,1.02-.14,1.41-.27,2.45-.77.37-.18.71-.43,1.04-.66.68-.48,1.36-.98,1.98-1.54s1.13-1.25,1.6-1.92.79-1.53,1.07-2.3.36-1.72.46-2.55.09-1.7.05-2.55c-.06-1.44-.57-2.83-1.6-3.86-.49-.53-1.08-.91-1.76-1.13-.65-.34-1.35-.5-2.1-.47-1.41.06-2.88.53-3.86,1.6s-1.66,2.41-1.6,3.86c.04.85.06,1.7-.05,2.55l.2-1.45c-.07.45-.18.89-.35,1.31l.55-1.3c-.14.31-.3.6-.5.88l.85-1.1c-.32.41-.7.76-1.11,1.08l1.1-.85c-.49.38-1.02.8-1.59,1.04l1.3-.55c-.11.04-.2.06-.31.08l1.45-.2c-.07,0-.14,0-.21,0l1.45.2c-.07,0-.14-.03-.21-.05-.73-.23-1.45-.26-2.18-.1-.73.03-1.4.25-2.03.65-.64.34-1.15.81-1.53,1.41-.48.53-.81,1.15-.98,1.86-.32,1.4-.25,2.97.55,4.21l.85,1.1c.68.68,1.48,1.14,2.41,1.4h0Z"/>
    </g>
  </g>
</svg>