<?xml version="1.0" encoding="UTF-8"?>
<svg id="Camada_2" data-name="Camada 2" xmlns="http://www.w3.org/2000/svg" viewBox="0 0 198.49 260.51">
  <defs>
    <style>
      .cls-1 {
        fill: #f39200;
      }
    </style>
  </defs>
  <g id="Camada_1-2" data-name="Camada 1">
    <g>
      <path class="cls-1" d="m80.2,109.56c13.4,0,13.42-20.82,0-20.82s-13.42,20.82,0,20.82h0Z"/>
      <path class="cls-1" d="m24.34,165.51c-4.67,28.02-7.98,56.24-9.83,84.59-.37,5.62,5.05,10.41,10.41,10.41,5.94,0,10.04-4.78,10.41-10.41,1.73-26.49,4.73-52.86,9.09-79.05.92-5.54-1.45-11.21-7.27-12.81-4.99-1.37-11.88,1.69-12.81,7.27h0Z"/>
      <path class="cls-1" d="m38.86,217.74c35.96,2.65,72.02.47,107.47-6.06,5.53-1.02,8.67-7.72,7.27-12.81-1.6-5.81-7.26-8.29-12.81-7.27-33.6,6.19-67.87,7.83-101.93,5.32-5.61-.41-10.41,5.08-10.41,10.41,0,5.98,4.78,10,10.41,10.41h0Z"/>
      <path class="cls-1" d="m197.84,114.15c2.37-29.72-1.73-60.17-12.18-88.12-2.57-6.87-5.08-15.9-10.02-21.46-6.28-7.06-16.72-5.75-21.24,2.52-7.36,13.46-10.67,29.63-12.53,44.68-.69,5.59,5.28,10.41,10.41,10.41,6.2,0,9.72-4.81,10.41-10.41.76-6.16,2.15-12.28,3.87-18.24.83-2.86,1.75-5.7,2.78-8.5.69-1.89,1.62-6.16,3.12-7.38l-7.36,3.05,1.2-.05-5.26-1.42c-1.36-1.34-1.46-1.08-.29.78.5,1.08,1,2.17,1.48,3.26.6,1.36,1.18,2.73,1.73,4.11,1.56,3.88,2.98,7.81,4.28,11.78,2.7,8.23,4.84,16.63,6.44,25.14,3.08,16.42,3.66,33.21,2.33,49.84-.45,5.61,5.11,10.41,10.41,10.41,6.01,0,9.96-4.78,10.41-10.41h0Z"/>
      <path class="cls-1" d="m129.36,52.05c-2.91-8.35-6.17-16.56-9.75-24.65-3.24-7.3-8.82-19.28-18.78-11.88-6.27,4.66-8.54,14.05-10.78,21.09-2.91,9.12-5.81,18.24-8.72,27.37-3.48,10.93,13.68,15.61,17.15,4.73,2.4-7.55,4.81-15.1,7.21-22.65,1.62-5.08,2.76-13.38,6.81-17.27l-3.92,2.29.68-.21-6.85-.9.68.41-3.19-3.19c5.41,8.96,8.88,19.74,12.31,29.58,3.74,10.74,20.93,6.12,17.15-4.73h0Z"/>
      <path class="cls-1" d="m143.16,46.02c-11.27,8.97-27.42,9.29-41.09,9.22-18.02-.09-35.74-.24-53.1,5.39-15.32,4.97-31.63,12.85-40.81,26.64S-1.05,119.61,1.22,135.23c1.33,9.11,5.57,16.54,13.34,21.62,2.62,1.71,7,2.99,8.97,5.35,1.42,1.69.78,4.63.3,6.77-2.93,13.05,17.14,18.63,20.08,5.54,1.83-8.14,1.94-16.83-3.13-23.88-2.25-3.14-5.17-5.55-8.44-7.58-2.52-1.56-5.64-2.63-7.88-4.58-3.87-3.36-3.28-10.86-3.42-15.46-.21-7.04-.14-14.76,2.84-21.31,5.62-12.4,21.93-18.55,34.08-22.03,16.42-4.7,32.95-3.34,49.79-3.62,18.18-.31,35.65-3.77,50.14-15.3,4.4-3.5,3.66-11.07,0-14.72-4.35-4.35-10.31-3.51-14.72,0h0Z"/>
      <path class="cls-1" d="m24.66,120.47c13.4,0,13.42-20.82,0-20.82s-13.42,20.82,0,20.82h0Z"/>
      <path class="cls-1" d="m38.86,80.59c13.4,0,13.42-20.82,0-20.82s-13.42,20.82,0,20.82h0Z"/>
      <path class="cls-1" d="m20.68,124c9.6-3.54,17.77-10.58,22.32-19.79,1.23-2.48-.24-5.59-3.21-5.6-6.19-.02-12.38-.04-18.57-.06-1.95,0-3.81,1.72-3.72,3.72s1.63,3.71,3.72,3.72c6.19.02,12.38.04,18.57.06l-3.21-5.6c-1,2.03-2.2,3.93-3.54,5.76.31-.42.13-.17-.08.1-.16.2-.32.4-.49.6-.36.43-.73.86-1.12,1.27-.76.83-1.56,1.63-2.4,2.39-.42.38-.84.75-1.28,1.11-.2.16-.4.32-.6.48-.34.28.47-.34-.1.08-.91.67-1.84,1.31-2.8,1.9s-1.95,1.13-2.97,1.63c-.46.23-.93.43-1.4.64.79-.37-.14.05-.25.1-.29.11-.57.22-.86.33-1.82.67-3.25,2.55-2.6,4.57.58,1.78,2.62,3.32,4.57,2.6h0Z"/>
      <path class="cls-1" d="m13.71,123.1c.31,3.55.88,7.13,3.75,9.57s7.7,3.46,11.37,4.1c7.51,1.31,15.31-.48,19.45-7.36,2.76-4.59-4.41-8.76-7.16-4.19-2.14,3.56-6.27,4.1-10.08,3.55-1.65-.24-3.34-.73-4.94-1.21-2.78-.83-3.82-1.35-4.09-4.47-.45-5.28-8.75-5.33-8.3,0h0Z"/>
      <path class="cls-1" d="m109.68,140.33c26.52-1.17,52.15,6.03,77.41,13.22,4.76,1.36,6.79-6.04,2.04-7.4-25.89-7.38-52.27-14.7-79.45-13.5-4.92.22-4.94,7.89,0,7.67h0Z"/>
      <path class="cls-1" d="m80.56,227.82c12.29,0,12.31-19.1,0-19.1s-12.31,19.1,0,19.1h0Z"/>
      <path class="cls-1" d="m156.3,158.87c-16.51-5.83-33.66-9.25-51.13-10.33-5.32-.33-5.3,7.95,0,8.28,16.75,1.04,33.12,4.45,48.93,10.04,5.03,1.78,7.2-6.22,2.2-7.98h0Z"/>
    </g>
  </g>
</svg>