<?xml version="1.0" encoding="UTF-8"?>
<svg id="Camada_2" data-name="Camada 2" xmlns="http://www.w3.org/2000/svg" viewBox="0 0 189.18 118.21">
  <defs>
    <style>
      .cls-1 {
        fill: #f39200;
      }

      .cls-2 {
        fill: #9d9d9c;
      }
    </style>
  </defs>
  <g id="Camada_1-2" data-name="Camada 1">
    <path class="cls-1" d="m92.44,21.92c9.19-8.83,21.63-14.26,35.32-14.26,24.83,0,45.57,17.86,50.21,41.47h7.74C180.96,21.28,156.79,0,127.75,0c-18.41,0-34.87,8.56-45.66,21.92h10.34Z"/>
    <path class="cls-1" d="m177.76,69.08c-4.66,23.61-25.51,41.47-50.47,41.47s-46.22-18.23-50.6-42.19h-7.78c4.46,28.21,28.93,49.84,58.37,49.84s53.49-21.28,58.25-49.13h-7.78Z"/>
    <path class="cls-2" d="m24.56,46.18c-.9,1.66-2.31,3-4.22,4.02-1.92,1.02-4.33,1.53-7.25,1.53h-5.95v13.64H0V29.85h13.08c2.75,0,5.09.48,7.02,1.43,1.93.95,3.38,2.26,4.35,3.92.97,1.66,1.45,3.55,1.45,5.65,0,1.9-.45,3.68-1.35,5.34Zm-7.41-1.55c.95-.9,1.43-2.16,1.43-3.79,0-3.46-1.93-5.19-5.8-5.19h-5.65v10.33h5.65c1.97,0,3.43-.45,4.38-1.35Z"/>
    <path class="cls-2" d="m56.95,53.41h-20.61c.17,2.04.88,3.63,2.14,4.78,1.25,1.15,2.8,1.73,4.63,1.73,2.65,0,4.53-1.14,5.65-3.41h7.69c-.81,2.71-2.38,4.94-4.68,6.69-2.31,1.75-5.14,2.62-8.5,2.62-2.72,0-5.15-.6-7.3-1.81-2.15-1.2-3.83-2.91-5.04-5.11-1.21-2.21-1.81-4.75-1.81-7.63s.59-5.48,1.78-7.69c1.19-2.2,2.85-3.9,4.99-5.09,2.14-1.19,4.6-1.78,7.38-1.78s5.08.58,7.2,1.73c2.12,1.15,3.77,2.79,4.94,4.91,1.17,2.12,1.76,4.56,1.76,7.3,0,1.02-.07,1.93-.2,2.75Zm-7.18-4.78c-.03-1.83-.7-3.3-1.98-4.4-1.29-1.1-2.87-1.65-4.73-1.65-1.76,0-3.25.53-4.45,1.6s-1.94,2.55-2.21,4.45h13.39Z"/>
    <path class="cls-2" d="m70.64,43.03v13.64c0,.95.23,1.64.69,2.06.46.42,1.23.64,2.32.64h3.31v6.01h-4.48c-6.01,0-9.01-2.92-9.01-8.75v-13.59h-3.36v-5.85h3.36v-6.97h7.18v6.97h6.31v5.85h-6.31Z"/>
    <path class="cls-1" d="m104.36,32.04c2.83,1.46,5.02,3.54,6.57,6.23,1.54,2.7,2.32,5.83,2.32,9.39s-.77,6.68-2.32,9.34c-1.54,2.66-3.73,4.73-6.57,6.18-2.83,1.46-6.12,2.19-9.85,2.19h-12.42V29.85h12.42c3.73,0,7.02.73,9.85,2.19Zm-1.45,24.23c2.04-2.04,3.05-4.9,3.05-8.6s-1.02-6.59-3.05-8.68c-2.04-2.09-4.92-3.13-8.65-3.13h-5.04v23.46h5.04c3.73,0,6.62-1.02,8.65-3.05Z"/>
    <path class="cls-1" d="m144.59,53.41h-20.61c.17,2.04.88,3.63,2.14,4.78,1.26,1.15,2.8,1.73,4.63,1.73,2.65,0,4.53-1.14,5.65-3.41h7.69c-.81,2.71-2.38,4.94-4.68,6.69-2.31,1.75-5.14,2.62-8.5,2.62-2.72,0-5.15-.6-7.3-1.81-2.16-1.2-3.83-2.91-5.04-5.11-1.2-2.21-1.81-4.75-1.81-7.63s.59-5.48,1.78-7.69c1.19-2.2,2.85-3.9,4.99-5.09,2.14-1.19,4.6-1.78,7.38-1.78s5.08.58,7.2,1.73c2.12,1.15,3.77,2.79,4.94,4.91,1.17,2.12,1.76,4.56,1.76,7.3,0,1.02-.07,1.93-.2,2.75Zm-7.18-4.78c-.03-1.83-.7-3.3-1.98-4.4-1.29-1.1-2.87-1.65-4.73-1.65-1.76,0-3.25.53-4.45,1.6-1.21,1.07-1.94,2.55-2.21,4.45h13.39Z"/>
    <path class="cls-1" d="m165.56,65.37l-5.8-8.75-5.14,8.75h-7.63l9.21-14.15-9.31-14.05h8.04l5.75,8.7,5.19-8.7h7.63l-9.26,14.05,9.36,14.15h-8.04Z"/>
    <path class="cls-2" d="m178.92,64.53c-.83-.8-1.25-1.79-1.25-2.98s.42-2.18,1.25-2.98c.83-.8,1.89-1.2,3.18-1.2s2.29.4,3.1,1.2c.81.8,1.22,1.79,1.22,2.98s-.41,2.18-1.22,2.98c-.81.8-1.85,1.2-3.1,1.2s-2.35-.4-3.18-1.2Z"/>
    <g>
      <path class="cls-2" d="m176.74,58.1c2.43,0,2.43-3.77,0-3.77s-2.43,3.77,0,3.77h0Z"/>
      <path class="cls-2" d="m182.3,56.32c2.43,0,2.43-3.77,0-3.77s-2.43,3.77,0,3.77h0Z"/>
      <path class="cls-2" d="m187.36,58.67c2.43,0,2.43-3.77,0-3.77s-2.43,3.77,0,3.77h0Z"/>
    </g>
    <g>
      <g>
        <path class="cls-2" d="m145.29,82.01c2.06,0,2.07-3.21,0-3.21s-2.07,3.21,0,3.21h0Z"/>
        <path class="cls-2" d="m136.69,90.63c-.71,4.32-1.22,8.66-1.51,13.03-.14,2.06,3.07,2.05,3.21,0,.28-4.08.74-8.14,1.4-12.18.33-2.02-2.76-2.89-3.09-.85h0Z"/>
        <path class="cls-2" d="m138.92,98.68c5.57.37,11.06.04,16.56-.93,2.03-.36,1.17-3.45-.85-3.09-5.21.92-10.43,1.17-15.71.82-2.06-.14-2.05,3.07,0,3.21h0Z"/>
        <path class="cls-2" d="m163.42,82.71c.25-3.77-.07-7.53-1.1-11.18-.54-1.9-1.25-5.78-3.52-6.37-.52-.13-1.2-.02-1.56.41-1.55,1.87-2.05,4.76-2.39,7.1-.29,2.02,2.8,2.89,3.09.85.22-1.56.51-4.42,1.56-5.68l-1.56.41c-.78-.74-.66-.27.38,1.42l.39,1.07c.44,1.26.78,2.55,1.04,3.86.54,2.7.62,5.37.45,8.1-.13,2.06,3.08,2.05,3.21,0h0Z"/>
        <path class="cls-2" d="m152.87,73.14c-.36-1.03-.75-2.05-1.18-3.06-.35-.83-.67-1.84-1.31-2.5-.42-.43-1.15-.52-1.66-.21-1.02.61-1.41,1.88-1.77,2.95-.51,1.55-.99,3.1-1.48,4.65-.54,1.68,2.11,2.4,2.64.73.36-1.12.71-2.24,1.07-3.36.16-.5.55-2.39.92-2.61l-1.66-.21c.45.46.74,1.61.97,2.17.29.72.56,1.45.82,2.18.58,1.65,3.23.94,2.64-.73h0Z"/>
        <path class="cls-2" d="m155.32,71.96c-3.5,2.39-7.51,1.33-11.45,1.8-3.14.37-6.82,1.52-8.99,3.96-1.82,2.05-2.14,4.94-1.83,7.58.13,1.06.31,2.07.98,2.95.9,1.19,2.75,1.35,2.52,3.34-.23,2.05,2.98,2.03,3.21,0,.23-1.97-.27-2.88-1.53-4.22-1.43-1.52-2.3-2.48-1.98-4.64.42-2.88,2.14-4.11,4.75-5.05,5.3-1.91,11.04.4,15.95-2.94,1.7-1.16.09-3.94-1.62-2.77h0Z"/>
        <path class="cls-2" d="m136.73,83.69c2.06,0,2.07-3.21,0-3.21s-2.07,3.21,0,3.21h0Z"/>
        <path class="cls-2" d="m138.92,77.54c2.06,0,2.07-3.21,0-3.21s-2.07,3.21,0,3.21h0Z"/>
        <path class="cls-2" d="m136.12,84.23c1.48-.55,2.74-1.63,3.44-3.05.19-.38-.04-.86-.49-.86-.95,0-1.91,0-2.86,0-.3,0-.59.26-.57.57s.25.57.57.57c.95,0,1.91,0,2.86,0l-.49-.86c-.15.31-.34.61-.55.89.05-.06.02-.03-.01.02-.02.03-.05.06-.08.09-.06.07-.11.13-.17.2-.12.13-.24.25-.37.37-.06.06-.13.12-.2.17-.03.03-.06.05-.09.07-.05.04.07-.05-.02.01-.14.1-.28.2-.43.29s-.3.17-.46.25c-.07.03-.14.07-.22.1.12-.06-.02,0-.04.01-.04.02-.09.03-.13.05-.28.1-.5.39-.4.7.09.28.4.51.7.4h0Z"/>
        <path class="cls-2" d="m135.05,84.09c.12,1.38.9,1.83,2.2,2.08,1.21.24,2.45,0,3.12-1.11.43-.7-.67-1.35-1.1-.65-.36.59-1.06.63-1.68.52s-1.2-.16-1.26-.85c-.07-.81-1.35-.82-1.28,0h0Z"/>
        <path class="cls-2" d="m149.84,86.75c4.11-.12,8.01.92,11.93,2.04.73.21,1.05-.93.31-1.14-4.03-1.14-8.02-2.2-12.24-2.08-.76.02-.76,1.2,0,1.18h0Z"/>
        <path class="cls-2" d="m145.35,100.23c1.89,0,1.9-2.94,0-2.94s-1.9,2.94,0,2.94h0Z"/>
        <path class="cls-2" d="m157.02,89.6c-2.56-.89-5.18-1.41-7.88-1.59-.82-.06-.82,1.22,0,1.28,2.59.17,5.09.7,7.54,1.55.78.27,1.11-.96.34-1.23h0Z"/>
      </g>
      <g>
        <path class="cls-2" d="m97.2,74.87c5.53,1.06,11.06,2.11,16.59,3.17,2.11.4,6.88.44,8.19,2.42,1,1.52.97,5.37,1.29,7.2.25-.6.49-1.21.74-1.81-3.51,1.55-7,2.18-10.83,2.09-2.07-.05-2.06,3.16,0,3.21,4.4.11,8.43-.76,12.45-2.53.69-.3.85-1.16.74-1.81-.45-2.55-.42-6.15-1.76-8.42-1.07-1.83-2.98-2.09-4.92-2.48-7.2-1.46-14.43-2.76-21.64-4.14-2.02-.39-2.88,2.71-.85,3.09h0Z"/>
        <path class="cls-2" d="m104.73,82.06c2.06,0,2.07-3.21,0-3.21s-2.07,3.21,0,3.21h0Z"/>
        <path class="cls-2" d="m123.27,84.78c-.88-.98-3.22-3.36-2.28-4.88-.46.26-.92.53-1.39.79-.56-.22-.64-.11-.23.34l.23.43c.27.53.52,1.08.77,1.62.5,1.07,1,2.14,1.5,3.21.87,1.87,3.64.24,2.77-1.62s-1.6-3.74-2.62-5.48c-.71-1.21-2.18-2.52-3.55-1.25-1.15,1.07-.91,3.28-.47,4.6.59,1.75,1.79,3.15,3,4.5,1.38,1.54,3.64-.73,2.27-2.27h0Z"/>
        <path class="cls-2" d="m91.81,76.04c0,2.58.6,5.03,1.74,7.33.92,1.85,3.69.23,2.77-1.62-.89-1.8-1.31-3.71-1.31-5.71s-3.2-2.07-3.21,0h0Z"/>
        <path class="cls-2" d="m121.45,79.36c2.62,1.51,2.6,4.82,2.61,7.48.01,2.06,3.22,2.07,3.21,0-.02-3.89-.5-8.12-4.2-10.25-1.79-1.03-3.41,1.74-1.62,2.77h0Z"/>
        <path class="cls-2" d="m91.5,75.5c-.97,3.02-1.31,8.46,1.51,10.65.97.75,2.67,1.33,3.75.46,1.48-1.19.18-3.15-.37-4.45-.84.65-1.68,1.3-2.52,1.94l.1-.1c.22,2.03,3.44,2.05,3.21,0-.1-.9-.3-1.59-1.04-2.17-1.47-1.15-3.24.23-2.52,1.94.03.06.5,1.46.62,1.15l1.12-1.12c-1.79.6-.98-6.79-.76-7.45.63-1.97-2.46-2.81-3.09-.85h0Z"/>
        <path class="cls-2" d="m115.73,91.53c.66,4.04,1.12,8.1,1.4,12.18.14,2.05,3.35,2.06,3.21,0-.3-4.37-.81-8.71-1.51-13.03-.33-2.03-3.43-1.17-3.09.85h0Z"/>
        <path class="cls-2" d="m116.63,95.52c-5.28.35-10.49.1-15.71-.82-2.02-.36-2.89,2.74-.85,3.09,5.5.97,10.99,1.3,16.56.93,2.05-.14,2.06-3.35,0-3.21h0Z"/>
        <path class="cls-2" d="m112.85,76.93c2.06,0,2.07-3.21,0-3.21s-2.07,3.21,0,3.21h0Z"/>
        <path class="cls-2" d="m113.07,87.87c-.66,0-1.33-.05-1.99-.14l.45.06c-.74-.1-1.46-.26-2.18-.47-.84-.25-1.86.3-2.06,1.17s.27,1.8,1.17,2.06c1.49.44,3.06.66,4.61.66.43,0,.88-.19,1.18-.49s.51-.77.49-1.18c-.04-.91-.74-1.67-1.68-1.68h0Z"/>
        <path class="cls-2" d="m110.48,100.28c1.89,0,1.9-2.94,0-2.94s-1.9,2.94,0,2.94h0Z"/>
        <path class="cls-2" d="m93.14,82.47c.55,1.13.89,2.32,1.41,3.45.47,1.04,2.31,1.06,2.77,0,.66-1.5-.16-3.27-1.49-4.14-1.74-1.13-3.35,1.65-1.62,2.77-.09-.06.07.14.08.16.04.08.09.5.1.25l.22-.81-.06.14h2.77c-.19-.42-.32-1.04-.52-1.52-.27-.66-.57-1.3-.89-1.93-.38-.78-1.49-.99-2.2-.58-.79.46-.96,1.41-.58,2.2h0Z"/>
        <path class="cls-2" d="m97.26,83.57c-.23-.68-.5-1.3-.97-1.84-.39-.45-.91-.79-1.41-1.11-.71-.45-1.8-.17-2.2.58-.42.79-.18,1.71.58,2.2.16.1.31.21.48.32.19.12-.18-.17-.03-.02.07.07.15.14.23.21.18.17.02-.03-.02-.03.03,0,.11.19.13.22.15.26-.04-.15.01.03.03.1.07.2.11.3.27.79,1.12,1.4,1.97,1.12.79-.26,1.41-1.12,1.12-1.97h0Z"/>
        <path class="cls-2" d="m93.27,82.78c.28.45.59.89.83,1.36.07.13.13.26.18.38.17.43,0,.36.21.06l.96-.74c.24,0,.45.07.65.25-.58-.64-1.68-.59-2.27,0-.64.64-.58,1.63,0,2.27.55.6,1.35.76,2.13.65.99-.15,1.57-.94,1.64-1.91.1-1.44-.84-2.77-1.56-3.93-1.09-1.75-3.87-.14-2.77,1.62h0Z"/>
        <path class="cls-2" d="m113.33,91.23c1.06.03,2.12,0,3.17-.07.86-.07,1.6-.69,1.6-1.6,0-.82-.74-1.67-1.6-1.6-1.06.08-2.11.11-3.17.07-.87-.03-1.6.76-1.6,1.6,0,.89.73,1.58,1.6,1.6h0Z"/>
        <path class="cls-2" d="m113.33,89.5c.76.03,1.53.05,2.29-.02s1.54-.22,2.3-.36c1.47-.27,2.9-.63,4.27-1.24.4-.18.49-.76.29-1.1-.24-.41-.7-.47-1.1-.29-1.23.55-2.57.84-3.89,1.08-.65.12-1.3.25-1.95.31-.74.06-1.48.03-2.21,0-1.04-.04-1.04,1.58,0,1.61h0Z"/>
        <path class="cls-2" d="m125.42,86.89c-.18.09-.36.17-.55.24l.2-.08c-.17.07-.34.14-.52.21-.11.03-.2.08-.28.15-.09.06-.16.14-.22.24-.06.1-.09.2-.1.31-.02.11-.02.22.01.33.07.2.19.4.39.5s.44.16.65.08c.43-.16.85-.34,1.27-.54.1-.05.18-.12.24-.22.07-.08.12-.18.15-.28.03-.11.04-.22.01-.33,0-.11-.04-.22-.1-.31-.12-.18-.29-.34-.5-.39l-.22-.03c-.15,0-.29.04-.42.11h0Z"/>
        <path class="cls-2" d="m125.2,87.86c1.08,0,1.08-1.68,0-1.68s-1.08,1.68,0,1.68h0Z"/>
        <path class="cls-2" d="m124.98,87.69c1.1,0,1.1-1.71,0-1.71s-1.1,1.71,0,1.71h0Z"/>
        <path class="cls-2" d="m123.24,76.67c-.91-.47-1.9-.74-2.93-.78-.44-.02-.86.4-.84.84.02.47.37.82.84.84.2,0,.39.02.58.05l-.22-.03c.51.07,1,.2,1.48.4l-.2-.08c.15.06.3.14.45.21.39.2.93.11,1.15-.3.2-.39.11-.93-.3-1.15h0Z"/>
        <path class="cls-2" d="m126.02,87.42c1.1,0,1.1-1.71,0-1.71s-1.1,1.71,0,1.71h0Z"/>
        <path class="cls-2" d="m125.28,88.36c.14.05.26.04.4.02.16-.02.22-.04.38-.12.06-.03.11-.07.16-.1.1-.07.21-.15.3-.24s.17-.19.25-.29.12-.23.16-.35.05-.26.07-.39.01-.26,0-.39c0-.22-.09-.43-.25-.59-.08-.08-.17-.14-.27-.17-.1-.05-.21-.08-.32-.07-.22,0-.44.08-.59.25s-.26.37-.25.59c0,.13,0,.26,0,.39l.03-.22c-.01.07-.03.14-.05.2l.08-.2s-.05.09-.08.13l.13-.17c-.05.06-.11.12-.17.17l.17-.13c-.08.06-.16.12-.24.16l.2-.08s-.03,0-.05.01l.22-.03s-.02,0-.03,0l.22.03s-.02,0-.03,0c-.11-.03-.22-.04-.33-.01-.11,0-.22.04-.31.1-.1.05-.18.12-.24.22-.07.08-.12.18-.15.28-.05.21-.04.46.08.65l.13.17c.1.1.23.18.37.22h0Z"/>
      </g>
    </g>
  </g>
</svg>