<?xml version="1.0" encoding="UTF-8"?>
<svg id="Camada_2" data-name="Camada 2" xmlns="http://www.w3.org/2000/svg" viewBox="0 0 218.27 201.76">
  <defs>
    <style>
      .cls-1 {
        fill: #f39200;
      }
    </style>
  </defs>
  <g id="Camada_1-2" data-name="Camada 1">
    <g>
      <path class="cls-1" d="m61.21,183.44c-12.74-12.2-19.1-27.39-19.1-45.59s6.36-33.38,19.1-45.6c12.73-12.2,28.96-18.31,48.71-18.31s35.07,6.11,47.54,18.31c12.47,12.22,18.7,27.42,18.7,45.6s-6.23,33.39-18.7,45.59c-12.47,12.22-28.32,18.32-47.54,18.32s-35.98-6.1-48.71-18.32Z"/>
      <g>
        <path class="cls-1" d="m27.88,84.98c37.14,0,37.2-57.72,0-57.72s-37.2,57.72,0,57.72h0Z"/>
        <path class="cls-1" d="m112.95,57.72c37.14,0,37.2-57.72,0-57.72s-37.2,57.72,0,57.72h0Z"/>
        <path class="cls-1" d="m190.39,93.71c37.14,0,37.2-57.72,0-57.72s-37.2,57.72,0,57.72h0Z"/>
      </g>
    </g>
  </g>
</svg>